<svg width="325" height="380" viewBox="0 0 325 380" version="1.1" xmlns="http://www.w3.org/2000/svg" xmlns:xlink="http://www.w3.org/1999/xlink">
<title>logo_form</title>
<desc>Created using Figma</desc>
<g id="Canvas" transform="translate(-3096 2468)">
<g id="logo_form">
<g id="eatsplit">
<g id="eatsplit">
<use xlink:href="#path0_fill" transform="translate(3123 -2163)" fill="#4F4F4F"/>
</g>
</g>
<g id="logo_eatsplit">
<g id="Ellipse 3">
<use xlink:href="#path1_fill" transform="translate(3096 -2468)" fill="#FFFFFF"/>
<mask id="mask0_outline_ins">
<use xlink:href="#path1_fill" fill="white" transform="translate(3096 -2468)"/>
</mask>
<g mask="url(#mask0_outline_ins)">
<use xlink:href="#path2_stroke_2x" transform="translate(3096 -2468)" fill="#EB5757"/>
</g>
</g>
<g id="Group 3.1">
<g id="restaurant">
<path d="M 3157.45 -2410.17L 3338.17 -2410.17L 3338.17 -2229.45L 3157.45 -2229.45L 3157.45 -2410.17Z" fill="#FFFFFF"/>
<g id="Group">
<g id="Group">
<g id="Vector">
<use xlink:href="#path3_fill" transform="translate(3163.42 -2313.78)" fill="#EB5757"/>
</g>
</g>
</g>
<g id="Group">
<g id="Group">
<g id="Vector">
<use xlink:href="#path4_fill" transform="matrix(0.316408 -0.948623 0.948623 0.316408 3168.88 -2233.4)" fill="#EB5757"/>
</g>
</g>
</g>
<g id="Group">
<g id="Group">
<g id="Vector">
<use xlink:href="#path5_fill" transform="matrix(0.948693 -0.316198 0.316198 0.948693 3205.04 -2258.61)" fill="#EB5757"/>
</g>
</g>
</g>
<g id="Group">
<g id="Group">
<g id="Vector">
<use xlink:href="#path6_fill" transform="translate(3202.63 -2301.73)" fill="#EB5757"/>
</g>
</g>
</g>
<g id="Group">
<g id="Group">
<g id="Vector">
<use xlink:href="#path7_fill" transform="translate(3238.77 -2289.69)" fill="#EB5757"/>
</g>
</g>
</g>
<g id="Group">
<g id="Group">
<g id="Vector">
<use xlink:href="#path8_fill" transform="translate(3160.46 -2410.17)" fill="#EB5757"/>
</g>
</g>
</g>
<g id="Group">
<g id="Group">
<g id="Vector">
<use xlink:href="#path9_fill" transform="translate(3232.75 -2386.07)" fill="#EB5757"/>
</g>
</g>
</g>
<g id="Group">
<g id="Group">
<g id="Vector">
<use xlink:href="#path10_fill" transform="translate(3208.65 -2386.07)" fill="#EB5757"/>
</g>
</g>
</g>
<g id="Group">
<g id="Group">
<g id="Vector">
<use xlink:href="#path11_fill" transform="translate(3184.55 -2386.07)" fill="#EB5757"/>
</g>
</g>
</g>
<g id="Group">
<g id="Group">
<g id="Vector">
<use xlink:href="#path12_fill" transform="translate(3160.46 -2386.07)" fill="#EB5757"/>
</g>
</g>
</g>
<g id="Group">
<g id="Group">
<g id="Vector">
<use xlink:href="#path13_fill" transform="translate(3256.84 -2386.07)" fill="#EB5757"/>
</g>
</g>
</g>
<g id="Group">
<g id="Group">
<g id="Vector">
<use xlink:href="#path14_fill" transform="translate(3280.94 -2386.07)" fill="#EB5757"/>
</g>
</g>
</g>
<g id="Group">
<g id="Group">
<g id="Vector">
<use xlink:href="#path15_fill" transform="translate(3305.04 -2386.07)" fill="#EB5757"/>
</g>
</g>
</g>
<g id="Group">
<g id="Group">
<g id="Vector">
<use xlink:href="#path16_fill" transform="translate(3232.75 -2407.16)" fill="#EB5757"/>
</g>
</g>
</g>
<g id="Group">
<g id="Group">
<g id="Vector">
<use xlink:href="#path17_fill" transform="translate(3256.84 -2407.16)" fill="#EB5757"/>
</g>
</g>
</g>
<g id="Group">
<g id="Group">
<g id="Vector">
<use xlink:href="#path18_fill" transform="translate(3208.65 -2407.16)" fill="#EB5757"/>
</g>
</g>
</g>
<g id="Group">
<g id="Group">
<g id="Vector">
<use xlink:href="#path19_fill" transform="translate(3280.94 -2407.16)" fill="#EB5757"/>
</g>
</g>
</g>
<g id="Group">
<g id="Group">
<g id="Vector">
<use xlink:href="#path20_fill" transform="matrix(0.123483 -0.992347 0.992218 0.124515 3184.58 -2383.44)" fill="#EB5757"/>
</g>
</g>
</g>
<g id="Group">
<g id="Group">
<g id="Vector">
<use xlink:href="#path21_fill" transform="matrix(0.992218 -0.124515 0.123483 0.992347 3302.05 -2406.78)" fill="#EB5757"/>
</g>
</g>
</g>
<g id="Group">
<g id="Group">
<g id="Vector">
<use xlink:href="#path22_fill" transform="translate(3272.66 -2313.78)" fill="#EB5757"/>
</g>
</g>
</g>
<g id="Group">
<g id="Group">
<g id="Vector">
<use xlink:href="#path23_fill" transform="matrix(0.948693 -0.316198 0.316198 0.948693 3311.97 -2258.61)" fill="#EB5757"/>
</g>
</g>
</g>
<g id="Group">
<g id="Group">
<g id="Vector">
<use xlink:href="#path24_fill" transform="matrix(0.316498 -0.948593 0.948593 0.316498 3275.83 -2233.43)" fill="#EB5757"/>
</g>
</g>
</g>
<g id="Group">
<g id="Group">
<g id="Vector">
<use xlink:href="#path25_fill" transform="translate(3157.45 -2235.47)" fill="#EB5757"/>
</g>
</g>
</g>
</g>
</g>
</g>
</g>
</g>
<defs>
<path id="path0_fill" d="M 33.525 35.875C 33.525 33.975 33.25 32.2 32.7 30.55C 32.2 28.85 31.425 27.4 30.375 26.2C 29.375 24.95 28.1 23.975 26.55 23.275C 25 22.525 23.225 22.15 21.225 22.15C 19.225 22.15 17.45 22.525 15.9 23.275C 14.4 24.025 13.1 25.025 12 26.275C 10.95 27.525 10.1 28.975 9.45 30.625C 8.8 32.275 8.375 34.025 8.175 35.875L 33.525 35.875ZM 8.175 39.625C 8.175 41.725 8.45 43.725 9 45.625C 9.55 47.475 10.35 49.1 11.4 50.5C 12.5 51.85 13.875 52.95 15.525 53.8C 17.175 54.6 19.075 55 21.225 55C 24.175 55 26.7 54.225 28.8 52.675C 30.9 51.125 32.3 48.925 33 46.075L 38.025 46.075C 37.475 47.925 36.75 49.65 35.85 51.25C 34.95 52.8 33.825 54.175 32.475 55.375C 31.125 56.525 29.525 57.425 27.675 58.075C 25.825 58.725 23.675 59.05 21.225 59.05C 18.125 59.05 15.45 58.525 13.2 57.475C 10.95 56.425 9.1 55 7.65 53.2C 6.2 51.35 5.125 49.2 4.425 46.75C 3.725 44.25 3.375 41.575 3.375 38.725C 3.375 35.875 3.775 33.2 4.575 30.7C 5.425 28.2 6.6 26.025 8.1 24.175C 9.65 22.275 11.525 20.8 13.725 19.75C 15.925 18.65 18.425 18.1 21.225 18.1C 26.575 18.1 30.775 19.95 33.825 23.65C 36.875 27.3 38.375 32.625 38.325 39.625L 8.175 39.625ZM 72.4998 37.6C 70.5998 38.4 68.6748 38.925 66.7248 39.175C 64.7748 39.425 62.8248 39.625 60.8748 39.775C 57.4248 40.025 54.7248 40.8 52.7748 42.1C 50.8748 43.4 49.9248 45.375 49.9248 48.025C 49.9248 49.225 50.1498 50.275 50.5998 51.175C 51.0998 52.025 51.7248 52.75 52.4748 53.35C 53.2748 53.9 54.1748 54.325 55.1748 54.625C 56.2248 54.875 57.2748 55 58.3248 55C 60.1248 55 61.8748 54.775 63.5748 54.325C 65.2748 53.875 66.7748 53.2 68.0748 52.3C 69.4248 51.35 70.4998 50.175 71.2998 48.775C 72.0998 47.325 72.4998 45.625 72.4998 43.675L 72.4998 37.6ZM 64.9248 35.35C 65.7748 35.25 66.7748 35.1 67.9248 34.9C 69.1248 34.7 70.0998 34.425 70.8498 34.075C 71.5998 33.725 72.0498 33.15 72.1998 32.35C 72.3998 31.5 72.4998 30.725 72.4998 30.025C 72.4998 27.725 71.7498 25.85 70.2498 24.4C 68.7998 22.9 66.3248 22.15 62.8248 22.15C 61.2748 22.15 59.8498 22.3 58.5498 22.6C 57.2498 22.85 56.0998 23.325 55.0998 24.025C 54.1498 24.675 53.3498 25.575 52.6998 26.725C 52.0998 27.825 51.6998 29.225 51.4998 30.925L 46.9248 30.925C 47.0748 28.625 47.5998 26.675 48.4998 25.075C 49.3998 23.425 50.5498 22.1 51.9498 21.1C 53.3998 20.05 55.0498 19.3 56.8998 18.85C 58.7998 18.35 60.7998 18.1 62.8998 18.1C 64.8498 18.1 66.6748 18.325 68.3748 18.775C 70.1248 19.175 71.6248 19.85 72.8748 20.8C 74.1748 21.7 75.1748 22.925 75.8748 24.475C 76.6248 26.025 76.9998 27.925 76.9998 30.175L 76.9998 51.325C 76.9998 53.075 77.2998 54.2 77.8998 54.7C 78.5498 55.15 79.8248 55.025 81.7248 54.325L 81.7248 57.85C 81.3748 57.95 80.8498 58.1 80.1498 58.3C 79.4998 58.5 78.8498 58.6 78.1998 58.6C 77.4998 58.6 76.8248 58.525 76.1748 58.375C 75.4248 58.275 74.8248 58.05 74.3748 57.7C 73.9248 57.3 73.5498 56.85 73.2498 56.35C 72.9998 55.8 72.8248 55.225 72.7248 54.625C 72.6248 53.975 72.5748 53.3 72.5748 52.6C 70.6748 54.7 68.4998 56.3 66.0498 57.4C 63.5998 58.5 60.9498 59.05 58.0998 59.05C 56.3998 59.05 54.7498 58.825 53.1498 58.375C 51.5998 57.925 50.2248 57.225 49.0248 56.275C 47.8248 55.325 46.8748 54.175 46.1748 52.825C 45.4748 51.425 45.1248 49.775 45.1248 47.875C 45.1248 41.275 49.6498 37.375 58.6998 36.175L 64.9248 35.35ZM 102.4 58.15C 101.85 58.25 101.125 58.425 100.225 58.675C 99.3246 58.925 98.3246 59.05 97.2246 59.05C 94.9746 59.05 93.2496 58.5 92.0496 57.4C 90.8996 56.25 90.3246 54.225 90.3246 51.325L 90.3246 22.9L 84.8496 22.9L 84.8496 19.15L 90.3246 19.15L 90.3246 8.35L 94.8246 8.35L 94.8246 19.15L 102.1 19.15L 102.1 22.9L 94.8246 22.9L 94.8246 49.525C 94.8246 50.475 94.8496 51.3 94.8996 52C 94.9496 52.7 95.0996 53.275 95.3496 53.725C 95.5996 54.175 95.9746 54.5 96.4746 54.7C 97.0246 54.9 97.7746 55 98.7246 55C 99.3246 55 99.9246 54.95 100.525 54.85C 101.175 54.75 101.8 54.625 102.4 54.475L 102.4 58.15ZM 112.249 45.85C 112.949 49.2 114.199 51.575 115.999 52.975C 117.849 54.325 120.474 55 123.874 55C 125.524 55 126.949 54.8 128.149 54.4C 129.349 54 130.324 53.475 131.074 52.825C 131.874 52.125 132.474 51.35 132.874 50.5C 133.274 49.65 133.474 48.75 133.474 47.8C 133.474 45.9 132.849 44.5 131.599 43.6C 130.399 42.65 128.874 41.925 127.024 41.425C 125.174 40.875 123.174 40.425 121.024 40.075C 118.874 39.675 116.874 39.1 115.024 38.35C 113.174 37.6 111.624 36.525 110.374 35.125C 109.174 33.725 108.574 31.75 108.574 29.2C 108.574 25.95 109.749 23.3 112.099 21.25C 114.499 19.15 117.874 18.1 122.224 18.1C 126.424 18.1 129.824 19.05 132.424 20.95C 135.074 22.8 136.674 25.925 137.224 30.325L 132.649 30.325C 132.249 27.325 131.099 25.225 129.199 24.025C 127.349 22.775 124.999 22.15 122.149 22.15C 119.299 22.15 117.124 22.775 115.624 24.025C 114.124 25.225 113.374 26.825 113.374 28.825C 113.374 30.575 113.974 31.925 115.174 32.875C 116.424 33.775 117.974 34.525 119.824 35.125C 121.674 35.675 123.674 36.175 125.824 36.625C 127.974 37.075 129.974 37.725 131.824 38.575C 133.674 39.375 135.199 40.475 136.399 41.875C 137.649 43.275 138.274 45.225 138.274 47.725C 138.274 49.575 137.874 51.225 137.074 52.675C 136.274 54.075 135.174 55.25 133.774 56.2C 132.374 57.15 130.699 57.85 128.749 58.3C 126.849 58.8 124.749 59.05 122.449 59.05C 120.149 59.05 118.099 58.7 116.299 58C 114.549 57.35 113.049 56.425 111.799 55.225C 110.549 54.025 109.574 52.625 108.874 51.025C 108.174 49.425 107.774 47.7 107.674 45.85L 112.249 45.85ZM 152.149 38.725C 152.149 40.925 152.449 43.025 153.049 45.025C 153.649 46.975 154.499 48.7 155.599 50.2C 156.749 51.65 158.124 52.825 159.724 53.725C 161.374 54.575 163.224 55 165.274 55C 167.574 55 169.574 54.55 171.274 53.65C 173.024 52.7 174.449 51.425 175.549 49.825C 176.649 48.225 177.449 46.375 177.949 44.275C 178.449 42.125 178.649 39.825 178.549 37.375C 178.549 34.925 178.199 32.775 177.499 30.925C 176.849 29.025 175.924 27.425 174.724 26.125C 173.524 24.825 172.124 23.85 170.524 23.2C 168.924 22.5 167.174 22.15 165.274 22.15C 163.174 22.15 161.299 22.575 159.649 23.425C 157.999 24.275 156.624 25.45 155.524 26.95C 154.424 28.4 153.574 30.15 152.974 32.2C 152.424 34.2 152.149 36.375 152.149 38.725ZM 152.149 73.3L 147.649 73.3L 147.649 19.15L 152.149 19.15L 152.149 25.975L 152.299 25.975C 152.949 24.725 153.774 23.6 154.774 22.6C 155.824 21.6 156.949 20.775 158.149 20.125C 159.399 19.475 160.674 18.975 161.974 18.625C 163.274 18.275 164.549 18.1 165.799 18.1C 168.949 18.1 171.624 18.625 173.824 19.675C 176.024 20.725 177.824 22.175 179.224 24.025C 180.674 25.825 181.724 27.975 182.374 30.475C 183.024 32.975 183.349 35.65 183.349 38.5C 183.349 41.2 182.999 43.8 182.299 46.3C 181.599 48.8 180.524 51 179.074 52.9C 177.674 54.75 175.874 56.25 173.674 57.4C 171.524 58.5 168.974 59.05 166.024 59.05C 163.274 59.05 160.624 58.45 158.074 57.25C 155.574 56 153.599 54.175 152.149 51.775L 152.149 73.3ZM 193.648 58L 193.648 4L 198.148 4L 198.148 58L 193.648 58ZM 210.274 58L 210.274 19.15L 214.774 19.15L 214.774 58L 210.274 58ZM 210.049 10.675L 210.049 4L 214.999 4L 214.999 10.675L 210.049 10.675ZM 239.875 58.15C 239.325 58.25 238.6 58.425 237.7 58.675C 236.8 58.925 235.8 59.05 234.7 59.05C 232.45 59.05 230.725 58.5 229.525 57.4C 228.375 56.25 227.8 54.225 227.8 51.325L 227.8 22.9L 222.325 22.9L 222.325 19.15L 227.8 19.15L 227.8 8.35L 232.3 8.35L 232.3 19.15L 239.575 19.15L 239.575 22.9L 232.3 22.9L 232.3 49.525C 232.3 50.475 232.325 51.3 232.375 52C 232.425 52.7 232.575 53.275 232.825 53.725C 233.075 54.175 233.45 54.5 233.95 54.7C 234.5 54.9 235.25 55 236.2 55C 236.8 55 237.4 54.95 238 54.85C 238.65 54.75 239.275 54.625 239.875 54.475L 239.875 58.15Z"/>
<path id="path1_fill" d="M 300 150C 300 232.843 232.843 300 150 300C 67.1573 300 0 232.843 0 150C 0 67.1573 67.1573 0 150 0C 232.843 0 300 67.1573 300 150Z"/>
<path id="path2_stroke_2x" d="M 295 150C 295 230.081 230.081 295 150 295L 150 305C 235.604 305 305 235.604 305 150L 295 150ZM 150 295C 69.9187 295 5 230.081 5 150L -5 150C -5 235.604 64.3959 305 150 305L 150 295ZM 5 150C 5 69.9187 69.9187 5 150 5L 150 -5C 64.3959 -5 -5 64.3959 -5 150L 5 150ZM 150 5C 230.081 5 295 69.9187 295 150L 305 150C 305 64.3959 235.604 -5 150 -5L 150 5Z"/>
<path id="path3_fill" d="M 50.5092 39.2169L 22.9641 39.1625L 18.0906 7.7259C 17.4429 3.30737 13.6085 -4.912e-06 9.20517 -4.912e-06C 9.15082 -4.912e-06 9.09363 -4.912e-06 9.03645 -4.912e-06C 4.08775 -4.912e-06 0.0423139 4.00591 0.000309906 8.97297C -0.00286686 9.37641 0.0183115 9.77704 0.066669 10.1445L 4.6751 49.295C 5.20527 53.8614 9.05763 57.2888 13.6301 57.2888C 13.6512 57.2888 13.6724 57.2888 13.6932 57.2888L 50.5035 57.2888C 55.4854 57.2888 59.5397 53.2345 59.5397 48.2527C 59.5397 43.2708 55.4851 39.2169 50.5092 39.2169ZM 50.5 51.2649L 13.6685 51.2649C 13.6625 51.2649 13.6534 51.2649 13.6474 51.2649C 12.1172 51.2649 10.8342 50.1234 10.6563 48.5933L 6.04535 9.40642C 6.03017 9.27405 6.02417 9.1385 6.02417 9.01179C 6.03617 7.3581 7.38559 6.02386 9.09046 6.02386C 9.11164 6.02386 9.12964 6.02068 9.14764 6.02386C 10.6354 6.02386 11.9128 7.1262 12.1327 8.62317L 17.4037 42.6291C 17.6296 44.096 18.8919 45.1772 20.3736 45.1804L 50.5 45.2407C 52.1597 45.2407 53.5119 46.5901 53.5119 48.2527C 53.5119 49.9155 52.1597 51.2649 50.5 51.2649Z"/>
<path id="path4_fill" d="M 28.574 0L 0 0L 0 6.02372L 28.574 6.02372L 28.574 0Z"/>
<path id="path5_fill" d="M 6.02426 3.87792e-06L 0 3.87792e-06L 0 28.5756L 6.02426 28.5756L 6.02426 3.87792e-06Z"/>
<path id="path6_fill" d="M 87.3495 4.30877e-06L 3.01193 4.30877e-06C 1.34942 4.30877e-06 5.01607e-15 1.34625 5.01607e-15 3.01193L 5.01607e-15 15.06C 5.01607e-15 16.7257 1.34942 18.0719 3.01193 18.0719L 87.3492 18.0719C 89.0149 18.0719 90.3611 16.7257 90.3611 15.06L 90.3611 3.01193C 90.3614 1.34625 89.0152 4.30877e-06 87.3495 4.30877e-06ZM 84.3372 12.0481L 6.02421 12.0481L 6.02421 6.02386L 84.3376 6.02386L 84.3376 12.0481L 84.3372 12.0481Z"/>
<path id="path7_fill" d="M 15.06 2.75761e-06L 3.01193 2.75761e-06C 1.34942 2.75761e-06 3.44702e-07 1.34624 3.44702e-07 3.01193L 3.44702e-07 57.2288C 3.44702e-07 58.8945 1.34942 60.2407 3.01193 60.2407L 15.06 60.2407C 16.7257 60.2407 18.0719 58.8945 18.0719 57.2288L 18.0719 3.01193C 18.0719 1.3466 16.7257 2.75761e-06 15.06 2.75761e-06ZM 12.0477 54.2169L 6.02351 54.2169L 6.02351 6.02421L 12.0477 6.02421L 12.0477 54.2169Z"/>
<path id="path8_fill" d="M 174.608 26.3764L 168.584 2.28021C 168.247 0.942795 167.045 0 165.663 0L 9.03589 0C 7.65329 0 6.44859 0.942795 6.11432 2.28021L 0.0901085 26.3764C -0.135795 27.2772 0.0689302 28.2288 0.638278 28.9608C 1.20763 29.6929 2.08406 30.1204 3.01168 30.1204L 171.686 30.1204C 172.614 30.1204 173.488 29.6926 174.06 28.9608C 174.632 28.2288 174.834 27.2772 174.608 26.3764ZM 6.87039 24.0965L 11.3885 6.02421L 163.31 6.02421L 167.828 24.0965L 6.87039 24.0965Z"/>
<path id="path9_fill" d="M 27.1084 -6.03228e-07L 3.01193 -6.03228e-07C 1.34942 -6.03228e-07 -2.62835e-06 1.34942 -2.62835e-06 3.01193L -2.62835e-06 12.0481C -2.62835e-06 20.3522 6.75593 27.1084 15.0604 27.1084C 23.3644 27.1084 30.1207 20.3525 30.1207 12.0481L 30.1207 3.01193C 30.1207 1.34942 28.7741 -6.03228e-07 27.1084 -6.03228e-07ZM 24.0965 12.0481C 24.0965 17.03 20.0422 21.0842 15.0604 21.0842C 10.0785 21.0842 6.02421 17.03 6.02421 12.0481L 6.02421 6.02386L 24.0965 6.02386L 24.0965 12.0481Z"/>
<path id="path10_fill" d="M 27.1084 -6.03228e-07L 3.01193 -6.03228e-07C 1.34942 -6.03228e-07 4.73965e-07 1.34942 4.73965e-07 3.01193L 4.73965e-07 12.0481C 4.73965e-07 20.3522 6.75593 27.1084 15.0604 27.1084C 23.3644 27.1084 30.1207 20.3525 30.1207 12.0481L 30.1207 3.01193C 30.1204 1.34942 28.7709 -6.03228e-07 27.1084 -6.03228e-07ZM 24.0961 12.0481C 24.0961 17.03 20.0419 21.0842 15.06 21.0842C 10.0781 21.0842 6.02386 17.03 6.02386 12.0481L 6.02386 6.02386L 24.0961 6.02386L 24.0961 12.0481Z"/>
<path id="path11_fill" d="M 27.1084 -6.03228e-07L 3.01193 -6.03228e-07C 1.34942 -6.03228e-07 1.07719e-06 1.34942 1.07719e-06 3.01193L 1.07719e-06 12.0481C 1.07719e-06 20.3522 6.75593 27.1084 15.0604 27.1084C 23.3648 27.1084 30.1207 20.3525 30.1207 12.0481L 30.1207 3.01193C 30.1204 1.34942 28.7709 -6.03228e-07 27.1084 -6.03228e-07ZM 24.0965 12.0481C 24.0965 17.03 20.0422 21.0842 15.0604 21.0842C 10.0785 21.0842 6.02421 17.03 6.02421 12.0481L 6.02421 6.02386L 24.0965 6.02386L 24.0965 12.0481Z"/>
<path id="path12_fill" d="M 27.1081 -6.03228e-07L 3.01193 -6.03228e-07C 1.34942 -6.03228e-07 1.40035e-07 1.34942 1.40035e-07 3.01193L 1.40035e-07 12.0481C 1.40035e-07 20.3522 6.75593 27.1084 15.0604 27.1084C 23.3644 27.1084 30.1207 20.3525 30.1207 12.0481L 30.1207 3.01193C 30.1204 1.34942 28.7709 -6.03228e-07 27.1081 -6.03228e-07ZM 24.0962 12.0481C 24.0962 17.03 20.0419 21.0842 15.06 21.0842C 10.0781 21.0842 6.02386 17.03 6.02386 12.0481L 6.02386 6.02386L 24.0962 6.02386L 24.0962 12.0481Z"/>
<path id="path13_fill" d="M 27.1084 -6.03228e-07L 3.01193 -6.03228e-07C 1.34624 -6.03228e-07 2.15439e-06 1.34942 2.15439e-06 3.01193L 2.15439e-06 12.0481C 2.15439e-06 20.3522 6.75593 27.1084 15.0604 27.1084C 23.3644 27.1084 30.1207 20.3525 30.1207 12.0481L 30.1207 3.01193C 30.1204 1.34942 28.7741 -6.03228e-07 27.1084 -6.03228e-07ZM 24.0965 12.0481C 24.0965 17.03 20.0422 21.0842 15.0604 21.0842C 10.0785 21.0842 6.02421 17.03 6.02421 12.0481L 6.02421 6.02386L 24.0965 6.02386L 24.0965 12.0481Z"/>
<path id="path14_fill" d="M 27.1084 -6.03228e-07L 3.01193 -6.03228e-07C 1.34624 -6.03228e-07 1.55116e-06 1.34942 1.55116e-06 3.01193L 1.55116e-06 12.0481C 1.55116e-06 20.3522 6.75593 27.1084 15.0604 27.1084C 23.3644 27.1084 30.1207 20.3525 30.1207 12.0481L 30.1207 3.01193C 30.1204 1.34942 28.7741 -6.03228e-07 27.1084 -6.03228e-07ZM 24.0962 12.0481C 24.0962 17.03 20.0419 21.0842 15.06 21.0842C 10.0781 21.0842 6.02387 17.03 6.02387 12.0481L 6.02387 6.02386L 24.0962 6.02386L 24.0962 12.0481Z"/>
<path id="path15_fill" d="M 27.1084 -6.03228e-07L 3.01193 -6.03228e-07C 1.34624 -6.03228e-07 -1.55116e-06 1.34942 -1.55116e-06 3.01193L -1.55116e-06 12.0481C -1.55116e-06 20.3522 6.75593 27.1084 15.0604 27.1084C 23.3644 27.1084 30.1207 20.3525 30.1207 12.0481L 30.1207 3.01193C 30.1207 1.34942 28.7741 -6.03228e-07 27.1084 -6.03228e-07ZM 24.0965 12.0481C 24.0965 17.03 20.0422 21.0842 15.0604 21.0842C 10.0785 21.0842 6.02422 17.03 6.02422 12.0481L 6.02422 6.02386L 24.0965 6.02386L 24.0965 12.0481Z"/>
<path id="path16_fill" d="M 6.02421 0L -2.62835e-06 0L -2.62835e-06 24.0965L 6.02421 24.0965L 6.02421 0Z"/>
<path id="path17_fill" d="M 6.02421 0L 2.15438e-06 0L 2.15438e-06 24.0965L 6.02421 24.0965L 6.02421 0Z"/>
<path id="path18_fill" d="M 6.02422 0L 0 0L 0 24.0965L 6.02422 24.0965L 6.02422 0Z"/>
<path id="path19_fill" d="M 6.02421 0L 0 0L 0 24.0965L 6.02421 24.0965L 6.02421 0Z"/>
<path id="path20_fill" d="M 24.2784 0L 0 0L 0 6.02439L 24.2784 6.02439L 24.2784 0Z"/>
<path id="path21_fill" d="M 6.0244 0L -4.99832e-06 0L -4.99832e-06 24.2784L 6.0244 24.2784L 6.0244 0Z"/>
<path id="path22_fill" d="M 50.5604 -4.912e-06C 50.494 -4.912e-06 50.446 -4.912e-06 50.3889 -4.912e-06C 45.9311 -4.912e-06 42.0996 3.30419 41.4522 7.7019L 36.5759 39.1629L 9.03614 39.2169C 4.05426 39.2169 -2.15438e-06 43.2711 -2.15438e-06 48.253C -2.15438e-06 53.2349 4.05426 57.2892 9.03614 57.2892L 45.8193 57.2892C 45.8404 57.2892 45.8613 57.2892 45.8824 57.2892C 50.4789 57.2892 54.3312 53.8614 54.8614 49.3013L 59.4666 10.1568C 59.515 9.75939 59.539 9.35877 59.5358 8.96697C 59.4998 4.00591 55.4519 -4.912e-06 50.5604 -4.912e-06ZM 53.4848 9.43677L 48.8764 48.5993C 48.6988 50.1234 47.4154 51.2649 45.8644 51.2649C 45.8584 51.2649 45.8493 51.2649 45.8433 51.2649L 9.03614 51.2649C 7.37363 51.2649 6.02422 49.9155 6.02422 48.253C 6.02422 46.5905 7.37363 45.2411 9.04214 45.2411L 39.1625 45.1807C 40.6443 45.1775 41.9065 44.0932 42.1324 42.6294L 47.4066 8.59916C 47.6233 7.1262 48.9007 6.02386 50.4429 6.02386C 50.4609 6.02386 50.4849 6.02386 50.5 6.02386C 52.1506 6.02386 53.5 7.3581 53.512 9.02097C 53.5151 9.15651 53.5031 9.29205 53.4848 9.43677Z"/>
<path id="path23_fill" d="M 6.02108 4.82586e-06L 4.22262e-06 4.82586e-06L 4.22262e-06 28.5756L 6.02108 28.5756L 6.02108 4.82586e-06Z"/>
<path id="path24_fill" d="M 28.5756 4.05027e-06L 3.36086e-06 4.05027e-06L 3.36086e-06 6.02108L 28.5756 6.02108L 28.5756 4.05027e-06Z"/>
<path id="path25_fill" d="M 180.723 4.91199e-06L 0 4.91199e-06L 0 6.02421L 180.723 6.02421L 180.723 4.91199e-06Z"/>
</defs>
</svg>
