<svg width="312" height="380" viewBox="0 0 312 380" version="1.1" xmlns="http://www.w3.org/2000/svg" xmlns:xlink="http://www.w3.org/1999/xlink">
<title>logo_form</title>
<desc>Created using Figma</desc>
<g id="Canvas" transform="translate(-3232 3009)">
<g id="logo_form">
<g id="eatsplit">
</g>
<g id="logo_eatsplit">
<g id="Ellipse 3">
<use xlink:href="#path0_fill" transform="translate(3232 -3009)" fill="#FFFFFF"/>
<mask id="mask0_outline_ins">
<use xlink:href="#path0_fill" fill="white" transform="translate(3232 -3009)"/>
</mask>
<g mask="url(#mask0_outline_ins)">
<use xlink:href="#path1_stroke_2x" transform="translate(3232 -3009)" fill="#EB5757"/>
</g>
</g>
<g id="Group 3.1">
<g id="restaurant">
<path d="M 3293.45 -2951.17L 3474.17 -2951.17L 3474.17 -2770.45L 3293.45 -2770.45L 3293.45 -2951.17Z" fill="#FFFFFF"/>
<g id="Group">
<g id="Group">
<g id="Vector">
<use xlink:href="#path2_fill" transform="translate(3299.42 -2854.78)" fill="#EB5757"/>
</g>
</g>
</g>
<g id="Group">
<g id="Group">
<g id="Vector">
<use xlink:href="#path3_fill" transform="matrix(0.316408 -0.948623 0.948623 0.316408 3304.88 -2774.4)" fill="#EB5757"/>
</g>
</g>
</g>
<g id="Group">
<g id="Group">
<g id="Vector">
<use xlink:href="#path4_fill" transform="matrix(0.948693 -0.316198 0.316198 0.948693 3341.04 -2799.61)" fill="#EB5757"/>
</g>
</g>
</g>
<g id="Group">
<g id="Group">
<g id="Vector">
<use xlink:href="#path5_fill" transform="translate(3338.63 -2842.73)" fill="#EB5757"/>
</g>
</g>
</g>
<g id="Group">
<g id="Group">
<g id="Vector">
<use xlink:href="#path6_fill" transform="translate(3374.77 -2830.69)" fill="#EB5757"/>
</g>
</g>
</g>
<g id="Group">
<g id="Group">
<g id="Vector">
<use xlink:href="#path7_fill" transform="translate(3296.46 -2951.17)" fill="#EB5757"/>
</g>
</g>
</g>
<g id="Group">
<g id="Group">
<g id="Vector">
<use xlink:href="#path8_fill" transform="translate(3368.75 -2927.07)" fill="#EB5757"/>
</g>
</g>
</g>
<g id="Group">
<g id="Group">
<g id="Vector">
<use xlink:href="#path9_fill" transform="translate(3344.65 -2927.07)" fill="#EB5757"/>
</g>
</g>
</g>
<g id="Group">
<g id="Group">
<g id="Vector">
<use xlink:href="#path10_fill" transform="translate(3320.55 -2927.07)" fill="#EB5757"/>
</g>
</g>
</g>
<g id="Group">
<g id="Group">
<g id="Vector">
<use xlink:href="#path11_fill" transform="translate(3296.46 -2927.07)" fill="#EB5757"/>
</g>
</g>
</g>
<g id="Group">
<g id="Group">
<g id="Vector">
<use xlink:href="#path12_fill" transform="translate(3392.84 -2927.07)" fill="#EB5757"/>
</g>
</g>
</g>
<g id="Group">
<g id="Group">
<g id="Vector">
<use xlink:href="#path13_fill" transform="translate(3416.94 -2927.07)" fill="#EB5757"/>
</g>
</g>
</g>
<g id="Group">
<g id="Group">
<g id="Vector">
<use xlink:href="#path14_fill" transform="translate(3441.04 -2927.07)" fill="#EB5757"/>
</g>
</g>
</g>
<g id="Group">
<g id="Group">
<g id="Vector">
<use xlink:href="#path15_fill" transform="translate(3368.75 -2948.16)" fill="#EB5757"/>
</g>
</g>
</g>
<g id="Group">
<g id="Group">
<g id="Vector">
<use xlink:href="#path16_fill" transform="translate(3392.84 -2948.16)" fill="#EB5757"/>
</g>
</g>
</g>
<g id="Group">
<g id="Group">
<g id="Vector">
<use xlink:href="#path17_fill" transform="translate(3344.65 -2948.16)" fill="#EB5757"/>
</g>
</g>
</g>
<g id="Group">
<g id="Group">
<g id="Vector">
<use xlink:href="#path18_fill" transform="translate(3416.94 -2948.16)" fill="#EB5757"/>
</g>
</g>
</g>
<g id="Group">
<g id="Group">
<g id="Vector">
<use xlink:href="#path19_fill" transform="matrix(0.123483 -0.992347 0.992218 0.124515 3320.58 -2924.44)" fill="#EB5757"/>
</g>
</g>
</g>
<g id="Group">
<g id="Group">
<g id="Vector">
<use xlink:href="#path20_fill" transform="matrix(0.992218 -0.124515 0.123483 0.992347 3438.05 -2947.78)" fill="#EB5757"/>
</g>
</g>
</g>
<g id="Group">
<g id="Group">
<g id="Vector">
<use xlink:href="#path21_fill" transform="translate(3408.66 -2854.78)" fill="#EB5757"/>
</g>
</g>
</g>
<g id="Group">
<g id="Group">
<g id="Vector">
<use xlink:href="#path22_fill" transform="matrix(0.948693 -0.316198 0.316198 0.948693 3447.97 -2799.61)" fill="#EB5757"/>
</g>
</g>
</g>
<g id="Group">
<g id="Group">
<g id="Vector">
<use xlink:href="#path23_fill" transform="matrix(0.316498 -0.948593 0.948593 0.316498 3411.83 -2774.43)" fill="#EB5757"/>
</g>
</g>
</g>
<g id="Group">
<g id="Group">
<g id="Vector">
<use xlink:href="#path24_fill" transform="translate(3293.45 -2776.47)" fill="#EB5757"/>
</g>
</g>
</g>
</g>
</g>
</g>
</g>
</g>
<defs>
<path id="path0_fill" d="M 300 150C 300 232.843 232.843 300 150 300C 67.1573 300 0 232.843 0 150C 0 67.1573 67.1573 0 150 0C 232.843 0 300 67.1573 300 150Z"/>
<path id="path1_stroke_2x" d="M 295 150C 295 230.081 230.081 295 150 295L 150 305C 235.604 305 305 235.604 305 150L 295 150ZM 150 295C 69.9187 295 5 230.081 5 150L -5 150C -5 235.604 64.3959 305 150 305L 150 295ZM 5 150C 5 69.9187 69.9187 5 150 5L 150 -5C 64.3959 -5 -5 64.3959 -5 150L 5 150ZM 150 5C 230.081 5 295 69.9187 295 150L 305 150C 305 64.3959 235.604 -5 150 -5L 150 5Z"/>
<path id="path2_fill" d="M 50.5092 39.2169L 22.9641 39.1625L 18.0906 7.7259C 17.4429 3.30737 13.6085 -4.912e-06 9.20517 -4.912e-06C 9.15082 -4.912e-06 9.09363 -4.912e-06 9.03645 -4.912e-06C 4.08775 -4.912e-06 0.0423139 4.00591 0.000309906 8.97296C -0.00286686 9.37641 0.0183115 9.77704 0.066669 10.1445L 4.6751 49.295C 5.20527 53.8614 9.05763 57.2888 13.6301 57.2888C 13.6512 57.2888 13.6724 57.2888 13.6932 57.2888L 50.5035 57.2888C 55.4854 57.2888 59.5397 53.2345 59.5397 48.2527C 59.5397 43.2708 55.4851 39.2169 50.5092 39.2169ZM 50.5 51.2649L 13.6685 51.2649C 13.6625 51.2649 13.6534 51.2649 13.6474 51.2649C 12.1172 51.2649 10.8342 50.1234 10.6563 48.5933L 6.04535 9.40642C 6.03017 9.27405 6.02417 9.1385 6.02417 9.01179C 6.03617 7.3581 7.38559 6.02386 9.09046 6.02386C 9.11164 6.02386 9.12964 6.02068 9.14764 6.02386C 10.6354 6.02386 11.9128 7.1262 12.1327 8.62317L 17.4037 42.6291C 17.6296 44.096 18.8919 45.1772 20.3736 45.1804L 50.5 45.2407C 52.1597 45.2407 53.5119 46.5901 53.5119 48.2527C 53.5119 49.9155 52.1597 51.2649 50.5 51.2649Z"/>
<path id="path3_fill" d="M 28.574 0L 0 0L 0 6.02372L 28.574 6.02372L 28.574 0Z"/>
<path id="path4_fill" d="M 6.02426 3.87792e-06L 0 3.87792e-06L 0 28.5756L 6.02426 28.5756L 6.02426 3.87792e-06Z"/>
<path id="path5_fill" d="M 87.3495 4.30877e-06L 3.01193 4.30877e-06C 1.34942 4.30877e-06 5.01607e-15 1.34625 5.01607e-15 3.01193L 5.01607e-15 15.06C 5.01607e-15 16.7257 1.34942 18.0719 3.01193 18.0719L 87.3492 18.0719C 89.0149 18.0719 90.3611 16.7257 90.3611 15.06L 90.3611 3.01193C 90.3614 1.34625 89.0152 4.30877e-06 87.3495 4.30877e-06ZM 84.3372 12.0481L 6.02421 12.0481L 6.02421 6.02386L 84.3376 6.02386L 84.3376 12.0481L 84.3372 12.0481Z"/>
<path id="path6_fill" d="M 15.06 2.75761e-06L 3.01193 2.75761e-06C 1.34942 2.75761e-06 3.44702e-07 1.34624 3.44702e-07 3.01193L 3.44702e-07 57.2288C 3.44702e-07 58.8945 1.34942 60.2407 3.01193 60.2407L 15.06 60.2407C 16.7257 60.2407 18.0719 58.8945 18.0719 57.2288L 18.0719 3.01193C 18.0719 1.3466 16.7257 2.75761e-06 15.06 2.75761e-06ZM 12.0477 54.2169L 6.02351 54.2169L 6.02351 6.02421L 12.0477 6.02421L 12.0477 54.2169Z"/>
<path id="path7_fill" d="M 174.608 26.3764L 168.584 2.28021C 168.247 0.942795 167.045 0 165.663 0L 9.03589 0C 7.65329 0 6.44859 0.942795 6.11432 2.28021L 0.0901085 26.3764C -0.135795 27.2772 0.0689302 28.2288 0.638278 28.9608C 1.20763 29.6929 2.08406 30.1204 3.01168 30.1204L 171.686 30.1204C 172.614 30.1204 173.488 29.6926 174.06 28.9608C 174.632 28.2288 174.834 27.2772 174.608 26.3764ZM 6.87039 24.0965L 11.3885 6.02421L 163.31 6.02421L 167.828 24.0965L 6.87039 24.0965Z"/>
<path id="path8_fill" d="M 27.1084 -6.03228e-07L 3.01193 -6.03228e-07C 1.34942 -6.03228e-07 -2.62835e-06 1.34942 -2.62835e-06 3.01193L -2.62835e-06 12.0481C -2.62835e-06 20.3522 6.75593 27.1084 15.0604 27.1084C 23.3644 27.1084 30.1207 20.3525 30.1207 12.0481L 30.1207 3.01193C 30.1207 1.34942 28.7741 -6.03228e-07 27.1084 -6.03228e-07ZM 24.0965 12.0481C 24.0965 17.03 20.0422 21.0842 15.0604 21.0842C 10.0785 21.0842 6.02421 17.03 6.02421 12.0481L 6.02421 6.02386L 24.0965 6.02386L 24.0965 12.0481Z"/>
<path id="path9_fill" d="M 27.1084 -6.03228e-07L 3.01193 -6.03228e-07C 1.34942 -6.03228e-07 4.73965e-07 1.34942 4.73965e-07 3.01193L 4.73965e-07 12.0481C 4.73965e-07 20.3522 6.75593 27.1084 15.0604 27.1084C 23.3644 27.1084 30.1207 20.3525 30.1207 12.0481L 30.1207 3.01193C 30.1204 1.34942 28.7709 -6.03228e-07 27.1084 -6.03228e-07ZM 24.0961 12.0481C 24.0961 17.03 20.0419 21.0842 15.06 21.0842C 10.0781 21.0842 6.02386 17.03 6.02386 12.0481L 6.02386 6.02386L 24.0961 6.02386L 24.0961 12.0481L 24.0961 12.0481Z"/>
<path id="path10_fill" d="M 27.1084 -6.03228e-07L 3.01193 -6.03228e-07C 1.34942 -6.03228e-07 1.07719e-06 1.34942 1.07719e-06 3.01193L 1.07719e-06 12.0481C 1.07719e-06 20.3522 6.75593 27.1084 15.0604 27.1084C 23.3648 27.1084 30.1207 20.3525 30.1207 12.0481L 30.1207 3.01193C 30.1204 1.34942 28.7709 -6.03228e-07 27.1084 -6.03228e-07ZM 24.0965 12.0481C 24.0965 17.03 20.0422 21.0842 15.0604 21.0842C 10.0785 21.0842 6.02421 17.03 6.02421 12.0481L 6.02421 6.02386L 24.0965 6.02386L 24.0965 12.0481Z"/>
<path id="path11_fill" d="M 27.1081 -6.03228e-07L 3.01193 -6.03228e-07C 1.34942 -6.03228e-07 1.40035e-07 1.34942 1.40035e-07 3.01193L 1.40035e-07 12.0481C 1.40035e-07 20.3522 6.75593 27.1084 15.0604 27.1084C 23.3644 27.1084 30.1207 20.3525 30.1207 12.0481L 30.1207 3.01193C 30.1204 1.34942 28.7709 -6.03228e-07 27.1081 -6.03228e-07ZM 24.0962 12.0481C 24.0962 17.03 20.0419 21.0842 15.06 21.0842C 10.0781 21.0842 6.02386 17.03 6.02386 12.0481L 6.02386 6.02386L 24.0962 6.02386L 24.0962 12.0481Z"/>
<path id="path12_fill" d="M 27.1084 -6.03228e-07L 3.01193 -6.03228e-07C 1.34624 -6.03228e-07 2.15439e-06 1.34942 2.15439e-06 3.01193L 2.15439e-06 12.0481C 2.15439e-06 20.3522 6.75593 27.1084 15.0604 27.1084C 23.3644 27.1084 30.1207 20.3525 30.1207 12.0481L 30.1207 3.01193C 30.1204 1.34942 28.7741 -6.03228e-07 27.1084 -6.03228e-07ZM 24.0965 12.0481C 24.0965 17.03 20.0422 21.0842 15.0604 21.0842C 10.0785 21.0842 6.02421 17.03 6.02421 12.0481L 6.02421 6.02386L 24.0965 6.02386L 24.0965 12.0481L 24.0965 12.0481Z"/>
<path id="path13_fill" d="M 27.1084 -6.03228e-07L 3.01193 -6.03228e-07C 1.34624 -6.03228e-07 1.55116e-06 1.34942 1.55116e-06 3.01193L 1.55116e-06 12.0481C 1.55116e-06 20.3522 6.75593 27.1084 15.0604 27.1084C 23.3644 27.1084 30.1207 20.3525 30.1207 12.0481L 30.1207 3.01193C 30.1204 1.34942 28.7741 -6.03228e-07 27.1084 -6.03228e-07ZM 24.0962 12.0481C 24.0962 17.03 20.0419 21.0842 15.06 21.0842C 10.0781 21.0842 6.02387 17.03 6.02387 12.0481L 6.02387 6.02386L 24.0962 6.02386L 24.0962 12.0481L 24.0962 12.0481Z"/>
<path id="path14_fill" d="M 27.1084 -6.03228e-07L 3.01193 -6.03228e-07C 1.34624 -6.03228e-07 -1.55116e-06 1.34942 -1.55116e-06 3.01193L -1.55116e-06 12.0481C -1.55116e-06 20.3522 6.75593 27.1084 15.0604 27.1084C 23.3644 27.1084 30.1207 20.3525 30.1207 12.0481L 30.1207 3.01193C 30.1207 1.34942 28.7741 -6.03228e-07 27.1084 -6.03228e-07ZM 24.0965 12.0481C 24.0965 17.03 20.0422 21.0842 15.0604 21.0842C 10.0785 21.0842 6.02422 17.03 6.02422 12.0481L 6.02422 6.02386L 24.0965 6.02386L 24.0965 12.0481L 24.0965 12.0481Z"/>
<path id="path15_fill" d="M 6.02421 0L -2.62835e-06 0L -2.62835e-06 24.0965L 6.02421 24.0965L 6.02421 0Z"/>
<path id="path16_fill" d="M 6.02421 0L 2.15438e-06 0L 2.15438e-06 24.0965L 6.02421 24.0965L 6.02421 0Z"/>
<path id="path17_fill" d="M 6.02422 0L 0 0L 0 24.0965L 6.02422 24.0965L 6.02422 0Z"/>
<path id="path18_fill" d="M 6.02421 0L 0 0L 0 24.0965L 6.02421 24.0965L 6.02421 0Z"/>
<path id="path19_fill" d="M 24.2784 0L 0 0L 0 6.02439L 24.2784 6.02439L 24.2784 0Z"/>
<path id="path20_fill" d="M 6.0244 0L -4.99832e-06 0L -4.99832e-06 24.2784L 6.0244 24.2784L 6.0244 0Z"/>
<path id="path21_fill" d="M 50.5604 -4.912e-06C 50.494 -4.912e-06 50.446 -4.912e-06 50.3889 -4.912e-06C 45.9311 -4.912e-06 42.0996 3.30419 41.4522 7.7019L 36.5759 39.1629L 9.03614 39.2169C 4.05426 39.2169 -2.15438e-06 43.2711 -2.15438e-06 48.253C -2.15438e-06 53.2349 4.05426 57.2892 9.03614 57.2892L 45.8193 57.2892C 45.8404 57.2892 45.8613 57.2892 45.8824 57.2892C 50.4789 57.2892 54.3312 53.8614 54.8614 49.3013L 59.4666 10.1568C 59.515 9.75939 59.539 9.35877 59.5358 8.96697C 59.4998 4.00591 55.4519 -4.912e-06 50.5604 -4.912e-06ZM 53.4848 9.43677L 48.8764 48.5993C 48.6988 50.1234 47.4154 51.2649 45.8644 51.2649C 45.8584 51.2649 45.8493 51.2649 45.8433 51.2649L 9.03614 51.2649C 7.37363 51.2649 6.02422 49.9155 6.02422 48.253C 6.02422 46.5905 7.37363 45.2411 9.04214 45.2411L 39.1625 45.1807C 40.6443 45.1775 41.9065 44.0932 42.1324 42.6294L 47.4066 8.59916C 47.6233 7.1262 48.9007 6.02386 50.4429 6.02386C 50.4609 6.02386 50.4849 6.02386 50.5 6.02386C 52.1505 6.02386 53.5 7.3581 53.512 9.02097C 53.5151 9.15651 53.5031 9.29205 53.4848 9.43677Z"/>
<path id="path22_fill" d="M 6.02108 4.82586e-06L 4.22262e-06 4.82586e-06L 4.22262e-06 28.5756L 6.02108 28.5756L 6.02108 4.82586e-06Z"/>
<path id="path23_fill" d="M 28.5756 4.05027e-06L 3.36086e-06 4.05027e-06L 3.36086e-06 6.02108L 28.5756 6.02108L 28.5756 4.05027e-06Z"/>
<path id="path24_fill" d="M 180.723 4.91199e-06L 0 4.91199e-06L 0 6.02421L 180.723 6.02421L 180.723 4.91199e-06Z"/>
</defs>
</svg>
