<svg width="83" height="83" viewBox="0 0 83 83" version="1.1" xmlns="http://www.w3.org/2000/svg" xmlns:xlink="http://www.w3.org/1999/xlink">
<title>logo_eatsplit</title>
<desc>Created using Figma</desc>
<g id="Canvas" transform="translate(-2719 2686)">
<g id="logo_eatsplit">
<g id="Ellipse 3">
<use xlink:href="#path0_fill" transform="translate(2719 -2686)" fill="#EB5757"/>
</g>
<g id="Group 3.1">
<g id="restaurant">
<path d="M 2736 -2670L 2786 -2670L 2786 -2620L 2736 -2620L 2736 -2670Z" fill="#EB5757"/>
<g id="Group">
<g id="Group">
<g id="Vector">
<use xlink:href="#path1_fill" transform="translate(2737.65 -2643.33)" fill="#FFFFFF"/>
</g>
</g>
</g>
<g id="Group">
<g id="Group">
<g id="Vector">
<use xlink:href="#path2_fill" transform="matrix(0.3164 -0.9486 0.9486 0.3164 2739.16 -2621.09)" fill="#FFFFFF"/>
</g>
</g>
</g>
<g id="Group">
<g id="Group">
<g id="Vector">
<use xlink:href="#path3_fill" transform="matrix(0.9487 -0.3162 0.3162 0.9487 2749.17 -2628.07)" fill="#FFFFFF"/>
</g>
</g>
</g>
<g id="Group">
<g id="Group">
<g id="Vector">
<use xlink:href="#path4_fill" transform="translate(2748.5 -2640)" fill="#FFFFFF"/>
</g>
</g>
</g>
<g id="Group">
<g id="Group">
<g id="Vector">
<use xlink:href="#path5_fill" transform="translate(2758.5 -2636.67)" fill="#FFFFFF"/>
</g>
</g>
</g>
<g id="Group">
<g id="Group">
<g id="Vector">
<use xlink:href="#path6_fill" transform="translate(2736.83 -2670)" fill="#FFFFFF"/>
</g>
</g>
</g>
<g id="Group">
<g id="Group">
<g id="Vector">
<use xlink:href="#path7_fill" transform="translate(2756.83 -2663.33)" fill="#FFFFFF"/>
</g>
</g>
</g>
<g id="Group">
<g id="Group">
<g id="Vector">
<use xlink:href="#path8_fill" transform="translate(2750.17 -2663.33)" fill="#FFFFFF"/>
</g>
</g>
</g>
<g id="Group">
<g id="Group">
<g id="Vector">
<use xlink:href="#path9_fill" transform="translate(2743.5 -2663.33)" fill="#FFFFFF"/>
</g>
</g>
</g>
<g id="Group">
<g id="Group">
<g id="Vector">
<use xlink:href="#path10_fill" transform="translate(2736.83 -2663.33)" fill="#FFFFFF"/>
</g>
</g>
</g>
<g id="Group">
<g id="Group">
<g id="Vector">
<use xlink:href="#path11_fill" transform="translate(2763.5 -2663.33)" fill="#FFFFFF"/>
</g>
</g>
</g>
<g id="Group">
<g id="Group">
<g id="Vector">
<use xlink:href="#path12_fill" transform="translate(2770.17 -2663.33)" fill="#FFFFFF"/>
</g>
</g>
</g>
<g id="Group">
<g id="Group">
<g id="Vector">
<use xlink:href="#path13_fill" transform="translate(2776.83 -2663.33)" fill="#FFFFFF"/>
</g>
</g>
</g>
<g id="Group">
<g id="Group">
<g id="Vector">
<use xlink:href="#path14_fill" transform="translate(2756.83 -2669.17)" fill="#FFFFFF"/>
</g>
</g>
</g>
<g id="Group">
<g id="Group">
<g id="Vector">
<use xlink:href="#path15_fill" transform="translate(2763.5 -2669.17)" fill="#FFFFFF"/>
</g>
</g>
</g>
<g id="Group">
<g id="Group">
<g id="Vector">
<use xlink:href="#path16_fill" transform="translate(2750.17 -2669.17)" fill="#FFFFFF"/>
</g>
</g>
</g>
<g id="Group">
<g id="Group">
<g id="Vector">
<use xlink:href="#path17_fill" transform="translate(2770.17 -2669.17)" fill="#FFFFFF"/>
</g>
</g>
</g>
<g id="Group">
<g id="Group">
<g id="Vector">
<use xlink:href="#path18_fill" transform="matrix(0.123485 -0.992364 0.992235 0.124517 2743.51 -2662.6)" fill="#FFFFFF"/>
</g>
</g>
</g>
<g id="Group">
<g id="Group">
<g id="Vector">
<use xlink:href="#path19_fill" transform="matrix(0.992235 -0.124517 0.123485 0.992364 2776.01 -2669.06)" fill="#FFFFFF"/>
</g>
</g>
</g>
<g id="Group">
<g id="Group">
<g id="Vector">
<use xlink:href="#path20_fill" transform="translate(2767.88 -2643.33)" fill="#FFFFFF"/>
</g>
</g>
</g>
<g id="Group">
<g id="Group">
<g id="Vector">
<use xlink:href="#path21_fill" transform="matrix(0.9487 -0.3162 0.3162 0.9487 2778.75 -2628.07)" fill="#FFFFFF"/>
</g>
</g>
</g>
<g id="Group">
<g id="Group">
<g id="Vector">
<use xlink:href="#path22_fill" transform="matrix(0.3165 -0.9486 0.9486 0.3165 2768.75 -2621.1)" fill="#FFFFFF"/>
</g>
</g>
</g>
<g id="Group">
<g id="Group">
<g id="Vector">
<use xlink:href="#path23_fill" transform="translate(2736 -2621.67)" fill="#FFFFFF"/>
</g>
</g>
</g>
</g>
</g>
</g>
</g>
<defs>
<path id="path0_fill" d="M 83 41.5C 83 64.4198 64.4198 83 41.5 83C 18.5802 83 0 64.4198 0 41.5C 0 18.5802 18.5802 0 41.5 0C 64.4198 0 83 18.5802 83 41.5Z"/>
<path id="path1_fill" d="M 13.9742 10.85L 6.35341 10.835L 5.00507 2.1375C 4.82587 0.915038 3.76503 -1.35899e-06 2.54677 -1.35899e-06C 2.53173 -1.35899e-06 2.51591 -1.35899e-06 2.50009 -1.35899e-06C 1.13094 -1.35899e-06 0.0117068 1.1083 8.57406e-05 2.48252C -0.000793166 2.59414 0.00506618 2.70498 0.0184451 2.80664L 1.29345 13.6383C 1.44012 14.9017 2.50594 15.8499 3.77098 15.8499C 3.77684 15.8499 3.7827 15.8499 3.78846 15.8499L 13.9726 15.8499C 15.351 15.8499 16.4726 14.7282 16.4726 13.3499C 16.4726 11.9716 15.3509 10.85 13.9742 10.85ZM 13.9717 14.1833L 3.78163 14.1833C 3.77997 14.1833 3.77743 14.1833 3.77577 14.1833C 3.35243 14.1833 2.99745 13.8675 2.94823 13.4441L 1.67255 2.60244C 1.66835 2.56582 1.66669 2.52832 1.66669 2.49326C 1.67001 2.03574 2.04335 1.6666 2.51503 1.6666C 2.52089 1.6666 2.52587 1.66572 2.53085 1.6666C 2.94247 1.6666 3.29589 1.97158 3.35673 2.38574L 4.81503 11.794C 4.87753 12.1999 5.22675 12.499 5.63671 12.4999L 13.9717 12.5166C 14.4308 12.5166 14.805 12.8899 14.805 13.3499C 14.805 13.81 14.4308 14.1833 13.9717 14.1833Z"/>
<path id="path2_fill" d="M 7.90566 0L 0 0L 0 1.6666L 7.90566 1.6666L 7.90566 0Z"/>
<path id="path3_fill" d="M 1.6667 0L 0 0L 0 7.90586L 1.6667 7.90586L 1.6667 0Z"/>
<path id="path4_fill" d="M 24.1667 1.19209e-06L 0.833301 1.19209e-06C 0.37334 1.19209e-06 1.38778e-15 0.372461 1.38778e-15 0.833301L 1.38778e-15 4.1666C 1.38778e-15 4.62744 0.37334 4.9999 0.833301 4.9999L 24.1666 4.9999C 24.6274 4.9999 24.9999 4.62744 24.9999 4.1666L 24.9999 0.833301C 25 0.372461 24.6275 1.19209e-06 24.1667 1.19209e-06ZM 23.3333 3.3333L 1.6667 3.3333L 1.6667 1.6666L 23.3334 1.6666L 23.3334 3.3333L 23.3333 3.3333Z"/>
<path id="path5_fill" d="M 4.1666 7.6294e-07L 0.833301 7.6294e-07C 0.37334 7.6294e-07 9.53674e-08 0.372461 9.53674e-08 0.833301L 9.53674e-08 15.8333C 9.53674e-08 16.2941 0.37334 16.6666 0.833301 16.6666L 4.1666 16.6666C 4.62744 16.6666 4.9999 16.2941 4.9999 15.8333L 4.9999 0.833301C 4.9999 0.372558 4.62744 7.6294e-07 4.1666 7.6294e-07ZM 3.3332 15L 1.6665 15L 1.6665 1.6667L 3.3332 1.6667L 3.3332 15Z"/>
<path id="path6_fill" d="M 48.3083 7.29746L 46.6416 0.630859C 46.5483 0.26084 46.2158 0 45.8333 0L 2.49993 0C 2.11741 0 1.78411 0.26084 1.69163 0.630859L 0.02493 7.29746C -0.03757 7.54668 0.0190707 7.80996 0.17659 8.0125C 0.33411 8.21504 0.57659 8.3333 0.833231 8.3333L 47.4999 8.3333C 47.7566 8.3333 47.9983 8.21494 48.1566 8.0125C 48.315 7.80996 48.3708 7.54668 48.3083 7.29746ZM 1.90081 6.6667L 3.15081 1.6667L 45.1825 1.6667L 46.4325 6.6667L 1.90081 6.6667Z"/>
<path id="path7_fill" d="M 7.5 -1.66893e-07L 0.833301 -1.66893e-07C 0.37334 -1.66893e-07 -7.27177e-07 0.37334 -7.27177e-07 0.833301L -7.27177e-07 3.3333C -7.27177e-07 5.63076 1.86914 7.5 4.1667 7.5C 6.46416 7.5 8.3334 5.63086 8.3334 3.3333L 8.3334 0.833301C 8.3334 0.37334 7.96084 -1.66893e-07 7.5 -1.66893e-07ZM 6.6667 3.3333C 6.6667 4.71162 5.54502 5.8333 4.1667 5.8333C 2.78838 5.8333 1.6667 4.71162 1.6667 3.3333L 1.6667 1.6666L 6.6667 1.6666L 6.6667 3.3333Z"/>
<path id="path8_fill" d="M 7.5 -1.66893e-07L 0.833301 -1.66893e-07C 0.37334 -1.66893e-07 1.3113e-07 0.37334 1.3113e-07 0.833301L 1.3113e-07 3.3333C 1.3113e-07 5.63076 1.86914 7.5 4.1667 7.5C 6.46416 7.5 8.3334 5.63086 8.3334 3.3333L 8.3334 0.833301C 8.3333 0.37334 7.95996 -1.66893e-07 7.5 -1.66893e-07ZM 6.6666 3.3333C 6.6666 4.71162 5.54492 5.8333 4.1666 5.8333C 2.78828 5.8333 1.6666 4.71162 1.6666 3.3333L 1.6666 1.6666L 6.6666 1.6666L 6.6666 3.3333L 6.6666 3.3333Z"/>
<path id="path9_fill" d="M 7.5 -1.66893e-07L 0.833301 -1.66893e-07C 0.37334 -1.66893e-07 2.98023e-07 0.37334 2.98023e-07 0.833301L 2.98023e-07 3.3333C 2.98023e-07 5.63076 1.86914 7.5 4.1667 7.5C 6.46426 7.5 8.3334 5.63086 8.3334 3.3333L 8.3334 0.833301C 8.3333 0.37334 7.95996 -1.66893e-07 7.5 -1.66893e-07ZM 6.6667 3.3333C 6.6667 4.71162 5.54502 5.8333 4.1667 5.8333C 2.78838 5.8333 1.6667 4.71162 1.6667 3.3333L 1.6667 1.6666L 6.6667 1.6666L 6.6667 3.3333Z"/>
<path id="path10_fill" d="M 7.4999 -1.66893e-07L 0.833301 -1.66893e-07C 0.37334 -1.66893e-07 3.8743e-08 0.37334 3.8743e-08 0.833301L 3.8743e-08 3.3333C 3.8743e-08 5.63076 1.86914 7.5 4.1667 7.5C 6.46416 7.5 8.3334 5.63086 8.3334 3.3333L 8.3334 0.833301C 8.3333 0.37334 7.95996 -1.66893e-07 7.4999 -1.66893e-07ZM 6.6666 3.3333C 6.6666 4.71162 5.54492 5.8333 4.1666 5.8333C 2.78828 5.8333 1.6666 4.71162 1.6666 3.3333L 1.6666 1.6666L 6.6666 1.6666L 6.6666 3.3333Z"/>
<path id="path11_fill" d="M 7.5 -1.66893e-07L 0.8333 -1.66893e-07C 0.372461 -1.66893e-07 5.96047e-07 0.37334 5.96047e-07 0.833301L 5.96047e-07 3.3333C 5.96047e-07 5.63076 1.86914 7.5 4.1667 7.5C 6.46416 7.5 8.3334 5.63086 8.3334 3.3333L 8.3334 0.833301C 8.3333 0.37334 7.96084 -1.66893e-07 7.5 -1.66893e-07ZM 6.6667 3.3333C 6.6667 4.71162 5.54502 5.8333 4.1667 5.8333C 2.78838 5.8333 1.6667 4.71162 1.6667 3.3333L 1.6667 1.6666L 6.6667 1.6666L 6.6667 3.3333L 6.6667 3.3333Z"/>
<path id="path12_fill" d="M 7.5 -1.66893e-07L 0.8333 -1.66893e-07C 0.37246 -1.66893e-07 4.29153e-07 0.37334 4.29153e-07 0.833301L 4.29153e-07 3.3333C 4.29153e-07 5.63076 1.86914 7.5 4.1667 7.5C 6.46416 7.5 8.3334 5.63086 8.3334 3.3333L 8.3334 0.833301C 8.3333 0.37334 7.96084 -1.66893e-07 7.5 -1.66893e-07ZM 6.6666 3.3333C 6.6666 4.71162 5.54492 5.8333 4.1666 5.8333C 2.78828 5.8333 1.6666 4.71162 1.6666 3.3333L 1.6666 1.6666L 6.6666 1.6666L 6.6666 3.3333L 6.6666 3.3333Z"/>
<path id="path13_fill" d="M 7.5 -1.66893e-07L 0.833299 -1.66893e-07C 0.37246 -1.66893e-07 -4.29153e-07 0.37334 -4.29153e-07 0.833301L -4.29153e-07 3.3333C -4.29153e-07 5.63076 1.86914 7.5 4.1667 7.5C 6.46416 7.5 8.3334 5.63086 8.3334 3.3333L 8.3334 0.833301C 8.3334 0.37334 7.96084 -1.66893e-07 7.5 -1.66893e-07ZM 6.6667 3.3333C 6.6667 4.71162 5.54502 5.8333 4.1667 5.8333C 2.78838 5.8333 1.6667 4.71162 1.6667 3.3333L 1.6667 1.6666L 6.6667 1.6666L 6.6667 3.3333L 6.6667 3.3333Z"/>
<path id="path14_fill" d="M 1.6667 0L 0 0L 0 6.6667L 1.6667 6.6667L 1.6667 0Z"/>
<path id="path15_fill" d="M 1.6667 0L 0 0L 0 6.6667L 1.6667 6.6667L 1.6667 0Z"/>
<path id="path16_fill" d="M 1.6667 0L 0 0L 0 6.6667L 1.6667 6.6667L 1.6667 0Z"/>
<path id="path17_fill" d="M 1.6667 0L 0 0L 0 6.6667L 1.6667 6.6667L 1.6667 0Z"/>
<path id="path18_fill" d="M 6.71689 0L 0 0L 0 1.66672L 6.71689 1.66672L 6.71689 0Z"/>
<path id="path19_fill" d="M 1.66672 0L 0 0L 0 6.71689L 1.66672 6.71689L 1.66672 0Z"/>
<path id="path20_fill" d="M 13.9884 -1.35899e-06C 13.97 -1.35899e-06 13.9567 -1.35899e-06 13.9409 -1.35899e-06C 12.7076 -1.35899e-06 11.6476 0.91416 11.4685 2.13086L 10.1193 10.8351L 2.5 10.85C 1.12168 10.85 -5.96046e-07 11.9717 -5.96046e-07 13.35C -5.96046e-07 14.7283 1.12168 15.85 2.5 15.85L 12.6767 15.85C 12.6825 15.85 12.6883 15.85 12.6941 15.85C 13.9658 15.85 15.0316 14.9017 15.1783 13.64L 16.4524 2.81006C 16.4658 2.7001 16.4725 2.58926 16.4716 2.48086C 16.4616 1.1083 15.3417 -1.35899e-06 13.9884 -1.35899e-06ZM 14.7975 2.61084L 13.5225 13.4458C 13.4733 13.8675 13.1183 14.1833 12.6892 14.1833C 12.6875 14.1833 12.685 14.1833 12.6833 14.1833L 2.5 14.1833C 2.04004 14.1833 1.6667 13.81 1.6667 13.35C 1.6667 12.89 2.04004 12.5167 2.50166 12.5167L 10.835 12.5C 11.2449 12.4991 11.5941 12.1991 11.6566 11.7941L 13.1158 2.3791C 13.1758 1.97158 13.5292 1.6666 13.9559 1.6666C 13.9608 1.6666 13.9675 1.6666 13.9717 1.6666C 14.4283 1.6666 14.8017 2.03574 14.805 2.4958C 14.8059 2.5333 14.8025 2.5708 14.7975 2.61084Z"/>
<path id="path21_fill" d="M 1.66582 0L 0 0L 0 7.90586L 1.66582 7.90586L 1.66582 0Z"/>
<path id="path22_fill" d="M 7.90586 0L 0 0L 0 1.66582L 7.90586 1.66582L 7.90586 0Z"/>
<path id="path23_fill" d="M 50 0L 0 0L 0 1.6667L 50 1.6667L 50 0Z"/>
</defs>
</svg>
