<svg width="214" height="166" viewBox="0 0 214 166" version="1.1" xmlns="http://www.w3.org/2000/svg" xmlns:xlink="http://www.w3.org/1999/xlink">
<title>Group 3</title>
<desc>Created using Figma</desc>
<g id="Canvas" transform="matrix(2 0 0 2 -5860 5626)">
<g id="Group 3">
<g id="restaurant">
<g id="Group">
<g id="Group">
<g id="Vector">
<use xlink:href="#path0_fill" transform="translate(2942.65 -2786.33)" fill="#EB5757"/>
</g>
</g>
</g>
<g id="Group">
<g id="Group">
<g id="Vector">
<use xlink:href="#path1_fill" transform="matrix(0.3164 -0.9486 0.9486 0.3164 2944.16 -2764.09)" fill="#EB5757"/>
</g>
</g>
</g>
<g id="Group">
<g id="Group">
<g id="Vector">
<use xlink:href="#path2_fill" transform="matrix(0.9487 -0.3162 0.3162 0.9487 2954.17 -2771.07)" fill="#EB5757"/>
</g>
</g>
</g>
<g id="Group">
<g id="Group">
<g id="Vector">
<use xlink:href="#path3_fill" transform="translate(2953.5 -2783)" fill="#EB5757"/>
</g>
</g>
</g>
<g id="Group">
<g id="Group">
<g id="Vector">
<use xlink:href="#path4_fill" transform="translate(2963.5 -2779.67)" fill="#EB5757"/>
</g>
</g>
</g>
<g id="Group">
<g id="Group">
<g id="Vector">
<use xlink:href="#path5_fill" transform="translate(2941.83 -2813)" fill="#EB5757"/>
</g>
</g>
</g>
<g id="Group">
<g id="Group">
<g id="Vector">
<use xlink:href="#path6_fill" transform="translate(2961.83 -2806.33)" fill="#EB5757"/>
</g>
</g>
</g>
<g id="Group">
<g id="Group">
<g id="Vector">
<use xlink:href="#path7_fill" transform="translate(2955.17 -2806.33)" fill="#EB5757"/>
</g>
</g>
</g>
<g id="Group">
<g id="Group">
<g id="Vector">
<use xlink:href="#path8_fill" transform="translate(2948.5 -2806.33)" fill="#EB5757"/>
</g>
</g>
</g>
<g id="Group">
<g id="Group">
<g id="Vector">
<use xlink:href="#path9_fill" transform="translate(2941.83 -2806.33)" fill="#EB5757"/>
</g>
</g>
</g>
<g id="Group">
<g id="Group">
<g id="Vector">
<use xlink:href="#path10_fill" transform="translate(2968.5 -2806.33)" fill="#EB5757"/>
</g>
</g>
</g>
<g id="Group">
<g id="Group">
<g id="Vector">
<use xlink:href="#path11_fill" transform="translate(2975.17 -2806.33)" fill="#EB5757"/>
</g>
</g>
</g>
<g id="Group">
<g id="Group">
<g id="Vector">
<use xlink:href="#path12_fill" transform="translate(2981.83 -2806.33)" fill="#EB5757"/>
</g>
</g>
</g>
<g id="Group">
<g id="Group">
<g id="Vector">
<use xlink:href="#path13_fill" transform="translate(2961.83 -2812.17)" fill="#EB5757"/>
</g>
</g>
</g>
<g id="Group">
<g id="Group">
<g id="Vector">
<use xlink:href="#path14_fill" transform="translate(2968.5 -2812.17)" fill="#EB5757"/>
</g>
</g>
</g>
<g id="Group">
<g id="Group">
<g id="Vector">
<use xlink:href="#path15_fill" transform="translate(2955.17 -2812.17)" fill="#EB5757"/>
</g>
</g>
</g>
<g id="Group">
<g id="Group">
<g id="Vector">
<use xlink:href="#path16_fill" transform="translate(2975.17 -2812.17)" fill="#EB5757"/>
</g>
</g>
</g>
<g id="Group">
<g id="Group">
<g id="Vector">
<use xlink:href="#path17_fill" transform="matrix(0.123485 -0.992364 0.992235 0.124517 2948.51 -2805.6)" fill="#EB5757"/>
</g>
</g>
</g>
<g id="Group">
<g id="Group">
<g id="Vector">
<use xlink:href="#path18_fill" transform="matrix(0.992235 -0.124517 0.123485 0.992364 2981.01 -2812.06)" fill="#EB5757"/>
</g>
</g>
</g>
<g id="Group">
<g id="Group">
<g id="Vector">
<use xlink:href="#path19_fill" transform="translate(2972.88 -2786.33)" fill="#EB5757"/>
</g>
</g>
</g>
<g id="Group">
<g id="Group">
<g id="Vector">
<use xlink:href="#path20_fill" transform="matrix(0.9487 -0.3162 0.3162 0.9487 2983.75 -2771.07)" fill="#EB5757"/>
</g>
</g>
</g>
<g id="Group">
<g id="Group">
<g id="Vector">
<use xlink:href="#path21_fill" transform="matrix(0.3165 -0.9486 0.9486 0.3165 2973.75 -2764.1)" fill="#EB5757"/>
</g>
</g>
</g>
<g id="Group">
<g id="Group">
<g id="Vector">
<use xlink:href="#path22_fill" transform="translate(2941 -2764.67)" fill="#EB5757"/>
</g>
</g>
</g>
</g>
<g id="eatsplit">
<g id="eatsplit">
<use xlink:href="#path23_fill" transform="translate(2930 -2756)" fill="#4F4F4F"/>
</g>
</g>
</g>
</g>
<defs>
<path id="path0_fill" d="M 13.9742 10.85L 6.35341 10.835L 5.00507 2.1375C 4.82587 0.915038 3.76503 -1.35899e-06 2.54677 -1.35899e-06C 2.53173 -1.35899e-06 2.51591 -1.35899e-06 2.50009 -1.35899e-06C 1.13094 -1.35899e-06 0.0117068 1.1083 8.57406e-05 2.48252C -0.000793166 2.59414 0.00506618 2.70498 0.0184451 2.80664L 1.29345 13.6383C 1.44012 14.9017 2.50594 15.8499 3.77098 15.8499C 3.77684 15.8499 3.7827 15.8499 3.78846 15.8499L 13.9726 15.8499C 15.351 15.8499 16.4726 14.7282 16.4726 13.3499C 16.4726 11.9716 15.3509 10.85 13.9742 10.85ZM 13.9717 14.1833L 3.78163 14.1833C 3.77997 14.1833 3.77743 14.1833 3.77577 14.1833C 3.35243 14.1833 2.99745 13.8675 2.94823 13.4441L 1.67255 2.60244C 1.66835 2.56582 1.66669 2.52832 1.66669 2.49326C 1.67001 2.03574 2.04335 1.6666 2.51503 1.6666C 2.52089 1.6666 2.52587 1.66572 2.53085 1.6666C 2.94247 1.6666 3.29589 1.97158 3.35673 2.38574L 4.81503 11.794C 4.87753 12.1999 5.22675 12.499 5.63671 12.4999L 13.9717 12.5166C 14.4308 12.5166 14.805 12.8899 14.805 13.3499C 14.805 13.81 14.4308 14.1833 13.9717 14.1833Z"/>
<path id="path1_fill" d="M 7.90566 0L 0 0L 0 1.6666L 7.90566 1.6666L 7.90566 0Z"/>
<path id="path2_fill" d="M 1.6667 0L 0 0L 0 7.90586L 1.6667 7.90586L 1.6667 0Z"/>
<path id="path3_fill" d="M 24.1667 1.19209e-06L 0.833301 1.19209e-06C 0.37334 1.19209e-06 1.38778e-15 0.372461 1.38778e-15 0.833301L 1.38778e-15 4.1666C 1.38778e-15 4.62744 0.37334 4.9999 0.833301 4.9999L 24.1666 4.9999C 24.6274 4.9999 24.9999 4.62744 24.9999 4.1666L 24.9999 0.833301C 25 0.372461 24.6275 1.19209e-06 24.1667 1.19209e-06ZM 23.3333 3.3333L 1.6667 3.3333L 1.6667 1.6666L 23.3334 1.6666L 23.3334 3.3333L 23.3333 3.3333Z"/>
<path id="path4_fill" d="M 4.1666 7.6294e-07L 0.833301 7.6294e-07C 0.37334 7.6294e-07 9.53674e-08 0.372461 9.53674e-08 0.833301L 9.53674e-08 15.8333C 9.53674e-08 16.2941 0.37334 16.6666 0.833301 16.6666L 4.1666 16.6666C 4.62744 16.6666 4.9999 16.2941 4.9999 15.8333L 4.9999 0.833301C 4.9999 0.372558 4.62744 7.6294e-07 4.1666 7.6294e-07ZM 3.3332 15L 1.6665 15L 1.6665 1.6667L 3.3332 1.6667L 3.3332 15Z"/>
<path id="path5_fill" d="M 48.3083 7.29746L 46.6416 0.630859C 46.5483 0.26084 46.2158 0 45.8333 0L 2.49993 0C 2.11741 0 1.78411 0.26084 1.69163 0.630859L 0.02493 7.29746C -0.03757 7.54668 0.0190707 7.80996 0.17659 8.0125C 0.33411 8.21504 0.57659 8.3333 0.833231 8.3333L 47.4999 8.3333C 47.7566 8.3333 47.9983 8.21494 48.1566 8.0125C 48.315 7.80996 48.3708 7.54668 48.3083 7.29746ZM 1.90081 6.6667L 3.15081 1.6667L 45.1825 1.6667L 46.4325 6.6667L 1.90081 6.6667Z"/>
<path id="path6_fill" d="M 7.5 -1.66893e-07L 0.833301 -1.66893e-07C 0.37334 -1.66893e-07 -7.27177e-07 0.37334 -7.27177e-07 0.833301L -7.27177e-07 3.3333C -7.27177e-07 5.63076 1.86914 7.5 4.1667 7.5C 6.46416 7.5 8.3334 5.63086 8.3334 3.3333L 8.3334 0.833301C 8.3334 0.37334 7.96084 -1.66893e-07 7.5 -1.66893e-07ZM 6.6667 3.3333C 6.6667 4.71162 5.54502 5.8333 4.1667 5.8333C 2.78838 5.8333 1.6667 4.71162 1.6667 3.3333L 1.6667 1.6666L 6.6667 1.6666L 6.6667 3.3333Z"/>
<path id="path7_fill" d="M 7.5 -1.66893e-07L 0.833301 -1.66893e-07C 0.37334 -1.66893e-07 1.3113e-07 0.37334 1.3113e-07 0.833301L 1.3113e-07 3.3333C 1.3113e-07 5.63076 1.86914 7.5 4.1667 7.5C 6.46416 7.5 8.3334 5.63086 8.3334 3.3333L 8.3334 0.833301C 8.3333 0.37334 7.95996 -1.66893e-07 7.5 -1.66893e-07ZM 6.6666 3.3333C 6.6666 4.71162 5.54492 5.8333 4.1666 5.8333C 2.78828 5.8333 1.6666 4.71162 1.6666 3.3333L 1.6666 1.6666L 6.6666 1.6666L 6.6666 3.3333L 6.6666 3.3333Z"/>
<path id="path8_fill" d="M 7.5 -1.66893e-07L 0.833301 -1.66893e-07C 0.37334 -1.66893e-07 2.98023e-07 0.37334 2.98023e-07 0.833301L 2.98023e-07 3.3333C 2.98023e-07 5.63076 1.86914 7.5 4.1667 7.5C 6.46426 7.5 8.3334 5.63086 8.3334 3.3333L 8.3334 0.833301C 8.3333 0.37334 7.95996 -1.66893e-07 7.5 -1.66893e-07ZM 6.6667 3.3333C 6.6667 4.71162 5.54502 5.8333 4.1667 5.8333C 2.78838 5.8333 1.6667 4.71162 1.6667 3.3333L 1.6667 1.6666L 6.6667 1.6666L 6.6667 3.3333Z"/>
<path id="path9_fill" d="M 7.4999 -1.66893e-07L 0.833301 -1.66893e-07C 0.37334 -1.66893e-07 3.8743e-08 0.37334 3.8743e-08 0.833301L 3.8743e-08 3.3333C 3.8743e-08 5.63076 1.86914 7.5 4.1667 7.5C 6.46416 7.5 8.3334 5.63086 8.3334 3.3333L 8.3334 0.833301C 8.3333 0.37334 7.95996 -1.66893e-07 7.4999 -1.66893e-07ZM 6.6666 3.3333C 6.6666 4.71162 5.54492 5.8333 4.1666 5.8333C 2.78828 5.8333 1.6666 4.71162 1.6666 3.3333L 1.6666 1.6666L 6.6666 1.6666L 6.6666 3.3333Z"/>
<path id="path10_fill" d="M 7.5 -1.66893e-07L 0.8333 -1.66893e-07C 0.372461 -1.66893e-07 5.96047e-07 0.37334 5.96047e-07 0.833301L 5.96047e-07 3.3333C 5.96047e-07 5.63076 1.86914 7.5 4.1667 7.5C 6.46416 7.5 8.3334 5.63086 8.3334 3.3333L 8.3334 0.833301C 8.3333 0.37334 7.96084 -1.66893e-07 7.5 -1.66893e-07ZM 6.6667 3.3333C 6.6667 4.71162 5.54502 5.8333 4.1667 5.8333C 2.78838 5.8333 1.6667 4.71162 1.6667 3.3333L 1.6667 1.6666L 6.6667 1.6666L 6.6667 3.3333L 6.6667 3.3333Z"/>
<path id="path11_fill" d="M 7.5 -1.66893e-07L 0.8333 -1.66893e-07C 0.37246 -1.66893e-07 4.29153e-07 0.37334 4.29153e-07 0.833301L 4.29153e-07 3.3333C 4.29153e-07 5.63076 1.86914 7.5 4.1667 7.5C 6.46416 7.5 8.3334 5.63086 8.3334 3.3333L 8.3334 0.833301C 8.3333 0.37334 7.96084 -1.66893e-07 7.5 -1.66893e-07ZM 6.6666 3.3333C 6.6666 4.71162 5.54492 5.8333 4.1666 5.8333C 2.78828 5.8333 1.6666 4.71162 1.6666 3.3333L 1.6666 1.6666L 6.6666 1.6666L 6.6666 3.3333L 6.6666 3.3333Z"/>
<path id="path12_fill" d="M 7.5 -1.66893e-07L 0.833299 -1.66893e-07C 0.37246 -1.66893e-07 -4.29153e-07 0.37334 -4.29153e-07 0.833301L -4.29153e-07 3.3333C -4.29153e-07 5.63076 1.86914 7.5 4.1667 7.5C 6.46416 7.5 8.3334 5.63086 8.3334 3.3333L 8.3334 0.833301C 8.3334 0.37334 7.96084 -1.66893e-07 7.5 -1.66893e-07ZM 6.6667 3.3333C 6.6667 4.71162 5.54502 5.8333 4.1667 5.8333C 2.78838 5.8333 1.6667 4.71162 1.6667 3.3333L 1.6667 1.6666L 6.6667 1.6666L 6.6667 3.3333L 6.6667 3.3333Z"/>
<path id="path13_fill" d="M 1.6667 0L 0 0L 0 6.6667L 1.6667 6.6667L 1.6667 0Z"/>
<path id="path14_fill" d="M 1.6667 0L 0 0L 0 6.6667L 1.6667 6.6667L 1.6667 0Z"/>
<path id="path15_fill" d="M 1.6667 0L 0 0L 0 6.6667L 1.6667 6.6667L 1.6667 0Z"/>
<path id="path16_fill" d="M 1.6667 0L 0 0L 0 6.6667L 1.6667 6.6667L 1.6667 0Z"/>
<path id="path17_fill" d="M 6.71689 0L 0 0L 0 1.66672L 6.71689 1.66672L 6.71689 0Z"/>
<path id="path18_fill" d="M 1.66672 0L 0 0L 0 6.71689L 1.66672 6.71689L 1.66672 0Z"/>
<path id="path19_fill" d="M 13.9884 -1.35899e-06C 13.97 -1.35899e-06 13.9567 -1.35899e-06 13.9409 -1.35899e-06C 12.7076 -1.35899e-06 11.6476 0.91416 11.4685 2.13086L 10.1193 10.8351L 2.5 10.85C 1.12168 10.85 -5.96046e-07 11.9717 -5.96046e-07 13.35C -5.96046e-07 14.7283 1.12168 15.85 2.5 15.85L 12.6767 15.85C 12.6825 15.85 12.6883 15.85 12.6941 15.85C 13.9658 15.85 15.0316 14.9017 15.1783 13.64L 16.4524 2.81006C 16.4658 2.7001 16.4725 2.58926 16.4716 2.48086C 16.4616 1.1083 15.3417 -1.35899e-06 13.9884 -1.35899e-06ZM 14.7975 2.61084L 13.5225 13.4458C 13.4733 13.8675 13.1183 14.1833 12.6892 14.1833C 12.6875 14.1833 12.685 14.1833 12.6833 14.1833L 2.5 14.1833C 2.04004 14.1833 1.6667 13.81 1.6667 13.35C 1.6667 12.89 2.04004 12.5167 2.50166 12.5167L 10.835 12.5C 11.2449 12.4991 11.5941 12.1991 11.6566 11.7941L 13.1158 2.3791C 13.1758 1.97158 13.5292 1.6666 13.9559 1.6666C 13.9608 1.6666 13.9675 1.6666 13.9717 1.6666C 14.4283 1.6666 14.8017 2.03574 14.805 2.4958C 14.8059 2.5333 14.8025 2.5708 14.7975 2.61084Z"/>
<path id="path20_fill" d="M 1.66582 0L 0 0L 0 7.90586L 1.66582 7.90586L 1.66582 0Z"/>
<path id="path21_fill" d="M 7.90586 0L 0 0L 0 1.66582L 7.90586 1.66582L 7.90586 0Z"/>
<path id="path22_fill" d="M 50 0L 0 0L 0 1.6667L 50 1.6667L 50 0Z"/>
<path id="path23_fill" d="M 10.728 10.92C 10.728 10.312 10.64 9.744 10.464 9.216C 10.304 8.672 10.056 8.208 9.72 7.824C 9.4 7.424 8.992 7.112 8.496 6.888C 8 6.648 7.432 6.528 6.792 6.528C 6.152 6.528 5.584 6.648 5.088 6.888C 4.608 7.128 4.192 7.448 3.84 7.848C 3.504 8.248 3.232 8.712 3.024 9.24C 2.816 9.768 2.68 10.328 2.616 10.92L 10.728 10.92ZM 2.616 12.12C 2.616 12.792 2.704 13.432 2.88 14.04C 3.056 14.632 3.312 15.152 3.648 15.6C 4 16.032 4.44 16.384 4.968 16.656C 5.496 16.912 6.104 17.04 6.792 17.04C 7.736 17.04 8.544 16.792 9.216 16.296C 9.888 15.8 10.336 15.096 10.56 14.184L 12.168 14.184C 11.992 14.776 11.76 15.328 11.472 15.84C 11.184 16.336 10.824 16.776 10.392 17.16C 9.96 17.528 9.448 17.816 8.856 18.024C 8.264 18.232 7.576 18.336 6.792 18.336C 5.8 18.336 4.944 18.168 4.224 17.832C 3.504 17.496 2.912 17.04 2.448 16.464C 1.984 15.872 1.64 15.184 1.416 14.4C 1.192 13.6 1.08 12.744 1.08 11.832C 1.08 10.92 1.208 10.064 1.464 9.264C 1.736 8.464 2.112 7.768 2.592 7.176C 3.088 6.568 3.688 6.096 4.392 5.76C 5.096 5.408 5.896 5.232 6.792 5.232C 8.504 5.232 9.848 5.824 10.824 7.008C 11.8 8.176 12.28 9.88 12.264 12.12L 2.616 12.12ZM 23.1999 11.472C 22.5919 11.728 21.9759 11.896 21.3519 11.976C 20.7279 12.056 20.1039 12.12 19.4799 12.168C 18.3759 12.248 17.5119 12.496 16.8879 12.912C 16.2799 13.328 15.9759 13.96 15.9759 14.808C 15.9759 15.192 16.0479 15.528 16.1919 15.816C 16.3519 16.088 16.5519 16.32 16.7919 16.512C 17.0479 16.688 17.3359 16.824 17.6559 16.92C 17.9919 17 18.3279 17.04 18.6639 17.04C 19.2399 17.04 19.7999 16.968 20.3439 16.824C 20.8879 16.68 21.3679 16.464 21.7839 16.176C 22.2159 15.872 22.5599 15.496 22.8159 15.048C 23.0719 14.584 23.1999 14.04 23.1999 13.416L 23.1999 11.472ZM 20.7759 10.752C 21.0479 10.72 21.3679 10.672 21.7359 10.608C 22.1199 10.544 22.4319 10.456 22.6719 10.344C 22.9119 10.232 23.0559 10.048 23.1039 9.792C 23.1679 9.52 23.1999 9.272 23.1999 9.048C 23.1999 8.312 22.9599 7.712 22.4799 7.248C 22.0159 6.768 21.2239 6.528 20.1039 6.528C 19.6079 6.528 19.1519 6.576 18.7359 6.672C 18.3199 6.752 17.9519 6.904 17.6319 7.128C 17.3279 7.336 17.0719 7.624 16.8639 7.992C 16.6719 8.344 16.5439 8.792 16.4799 9.336L 15.0159 9.336C 15.0639 8.6 15.2319 7.976 15.5199 7.464C 15.8079 6.936 16.1759 6.512 16.6239 6.192C 17.0879 5.856 17.6159 5.616 18.2079 5.472C 18.8159 5.312 19.4559 5.232 20.1279 5.232C 20.7519 5.232 21.3359 5.304 21.8799 5.448C 22.4399 5.576 22.9199 5.792 23.3199 6.096C 23.7359 6.384 24.0559 6.776 24.2799 7.272C 24.5199 7.768 24.6399 8.376 24.6399 9.096L 24.6399 15.864C 24.6399 16.424 24.7359 16.784 24.9279 16.944C 25.1359 17.088 25.5439 17.048 26.1519 16.824L 26.1519 17.952C 26.0399 17.984 25.8719 18.032 25.6479 18.096C 25.4399 18.16 25.2319 18.192 25.0239 18.192C 24.7999 18.192 24.5839 18.168 24.3759 18.12C 24.1359 18.088 23.9439 18.016 23.7999 17.904C 23.6559 17.776 23.5359 17.632 23.4399 17.472C 23.3599 17.296 23.3039 17.112 23.2719 16.92C 23.2399 16.712 23.2239 16.496 23.2239 16.272C 22.6159 16.944 21.9199 17.456 21.1359 17.808C 20.3519 18.16 19.5039 18.336 18.5919 18.336C 18.0479 18.336 17.5199 18.264 17.0079 18.12C 16.5119 17.976 16.0719 17.752 15.6879 17.448C 15.3039 17.144 14.9999 16.776 14.7759 16.344C 14.5519 15.896 14.4399 15.368 14.4399 14.76C 14.4399 12.648 15.8879 11.4 18.7839 11.016L 20.7759 10.752ZM 32.7679 18.048C 32.5919 18.08 32.3599 18.136 32.0719 18.216C 31.7839 18.296 31.4639 18.336 31.1119 18.336C 30.3919 18.336 29.8399 18.16 29.4559 17.808C 29.0879 17.44 28.9039 16.792 28.9039 15.864L 28.9039 6.768L 27.1519 6.768L 27.1519 5.568L 28.9039 5.568L 28.9039 2.112L 30.3439 2.112L 30.3439 5.568L 32.6719 5.568L 32.6719 6.768L 30.3439 6.768L 30.3439 15.288C 30.3439 15.592 30.3519 15.856 30.3679 16.08C 30.3839 16.304 30.4319 16.488 30.5119 16.632C 30.5919 16.776 30.7119 16.88 30.8719 16.944C 31.0479 17.008 31.2879 17.04 31.5919 17.04C 31.7839 17.04 31.9759 17.024 32.1679 16.992C 32.3759 16.96 32.5759 16.92 32.7679 16.872L 32.7679 18.048ZM 35.9196 14.112C 36.1436 15.184 36.5436 15.944 37.1196 16.392C 37.7116 16.824 38.5516 17.04 39.6396 17.04C 40.1676 17.04 40.6236 16.976 41.0076 16.848C 41.3916 16.72 41.7036 16.552 41.9436 16.344C 42.1996 16.12 42.3916 15.872 42.5196 15.6C 42.6476 15.328 42.7116 15.04 42.7116 14.736C 42.7116 14.128 42.5116 13.68 42.1116 13.392C 41.7276 13.088 41.2396 12.856 40.6476 12.696C 40.0556 12.52 39.4156 12.376 38.7276 12.264C 38.0396 12.136 37.3996 11.952 36.8076 11.712C 36.2156 11.472 35.7196 11.128 35.3196 10.68C 34.9356 10.232 34.7436 9.6 34.7436 8.784C 34.7436 7.744 35.1196 6.896 35.8716 6.24C 36.6396 5.568 37.7196 5.232 39.1116 5.232C 40.4556 5.232 41.5436 5.536 42.3756 6.144C 43.2236 6.736 43.7356 7.736 43.9116 9.144L 42.4476 9.144C 42.3196 8.184 41.9516 7.512 41.3436 7.128C 40.7516 6.728 39.9996 6.528 39.0876 6.528C 38.1756 6.528 37.4796 6.728 36.9996 7.128C 36.5196 7.512 36.2796 8.024 36.2796 8.664C 36.2796 9.224 36.4716 9.656 36.8556 9.96C 37.2556 10.248 37.7516 10.488 38.3436 10.68C 38.9356 10.856 39.5756 11.016 40.2636 11.16C 40.9516 11.304 41.5916 11.512 42.1836 11.784C 42.7756 12.04 43.2636 12.392 43.6476 12.84C 44.0476 13.288 44.2476 13.912 44.2476 14.712C 44.2476 15.304 44.1196 15.832 43.8636 16.296C 43.6076 16.744 43.2556 17.12 42.8076 17.424C 42.3596 17.728 41.8236 17.952 41.1996 18.096C 40.5916 18.256 39.9196 18.336 39.1836 18.336C 38.4476 18.336 37.7916 18.224 37.2156 18C 36.6556 17.792 36.1756 17.496 35.7756 17.112C 35.3756 16.728 35.0636 16.28 34.8396 15.768C 34.6156 15.256 34.4876 14.704 34.4556 14.112L 35.9196 14.112ZM 48.6876 11.832C 48.6876 12.536 48.7836 13.208 48.9756 13.848C 49.1676 14.472 49.4396 15.024 49.7916 15.504C 50.1596 15.968 50.5996 16.344 51.1116 16.632C 51.6396 16.904 52.2316 17.04 52.8876 17.04C 53.6236 17.04 54.2636 16.896 54.8076 16.608C 55.3676 16.304 55.8236 15.896 56.1756 15.384C 56.5276 14.872 56.7836 14.28 56.9436 13.608C 57.1036 12.92 57.1676 12.184 57.1356 11.4C 57.1356 10.616 57.0236 9.928 56.7996 9.336C 56.5916 8.728 56.2956 8.216 55.9116 7.8C 55.5276 7.384 55.0796 7.072 54.5676 6.864C 54.0556 6.64 53.4956 6.528 52.8876 6.528C 52.2156 6.528 51.6156 6.664 51.0876 6.936C 50.5596 7.208 50.1196 7.584 49.7676 8.064C 49.4156 8.528 49.1436 9.088 48.9516 9.744C 48.7756 10.384 48.6876 11.08 48.6876 11.832ZM 48.6876 22.896L 47.2476 22.896L 47.2476 5.568L 48.6876 5.568L 48.6876 7.752L 48.7356 7.752C 48.9436 7.352 49.2076 6.992 49.5276 6.672C 49.8636 6.352 50.2236 6.088 50.6076 5.88C 51.0076 5.672 51.4156 5.512 51.8316 5.4C 52.2476 5.288 52.6556 5.232 53.0556 5.232C 54.0636 5.232 54.9196 5.4 55.6236 5.736C 56.3276 6.072 56.9036 6.536 57.3516 7.128C 57.8156 7.704 58.1516 8.392 58.3596 9.192C 58.5676 9.992 58.6716 10.848 58.6716 11.76C 58.6716 12.624 58.5596 13.456 58.3356 14.256C 58.1116 15.056 57.7676 15.76 57.3036 16.368C 56.8556 16.96 56.2796 17.44 55.5756 17.808C 54.8876 18.16 54.0716 18.336 53.1276 18.336C 52.2476 18.336 51.3996 18.144 50.5836 17.76C 49.7836 17.36 49.1516 16.776 48.6876 16.008L 48.6876 22.896ZM 61.9674 18L 61.9674 0.719999L 63.4074 0.719999L 63.4074 18L 61.9674 18ZM 67.2878 18L 67.2878 5.568L 68.7278 5.568L 68.7278 18L 67.2878 18ZM 67.2158 2.856L 67.2158 0.719999L 68.7997 0.719999L 68.7997 2.856L 67.2158 2.856ZM 76.7601 18.048C 76.5841 18.08 76.3521 18.136 76.0641 18.216C 75.7761 18.296 75.4561 18.336 75.1041 18.336C 74.3841 18.336 73.8321 18.16 73.4481 17.808C 73.0801 17.44 72.8961 16.792 72.8961 15.864L 72.8961 6.768L 71.1441 6.768L 71.1441 5.568L 72.8961 5.568L 72.8961 2.112L 74.3361 2.112L 74.3361 5.568L 76.6641 5.568L 76.6641 6.768L 74.3361 6.768L 74.3361 15.288C 74.3361 15.592 74.3441 15.856 74.3601 16.08C 74.3761 16.304 74.4241 16.488 74.5041 16.632C 74.5841 16.776 74.7041 16.88 74.8641 16.944C 75.0401 17.008 75.2801 17.04 75.5841 17.04C 75.7761 17.04 75.9681 17.024 76.1601 16.992C 76.3681 16.96 76.5681 16.92 76.7601 16.872L 76.7601 18.048Z"/>
</defs>
</svg>
