<svg width="469" height="464" viewBox="0 0 469 464" version="1.1" xmlns="http://www.w3.org/2000/svg" xmlns:xlink="http://www.w3.org/1999/xlink">
<title>loop</title>
<desc>Created using Figma</desc>
<g id="Canvas" transform="translate(-2494 2124)">
<g id="loop">
<g id="Group">
<g id="Group">
<g id="Vector">
<use xlink:href="#path0_fill" transform="translate(2494 -2124)" fill="#EB5757"/>
</g>
</g>
</g>
</g>
</g>
<defs>
<path id="path0_fill" d="M 325.55 315.35C 356.433 281.917 375.7 237.15 375.7 187.85C 375.7 84.433 291.55 0 187.85 0C 84.15 0 5.72205e-08 84.433 5.72205e-08 187.85C 5.72205e-08 291.267 84.15 375.7 187.85 375.7C 230.067 375.7 268.883 361.817 300.333 338.3L 440.016 477.983C 443.416 481.383 447.666 483.083 451.916 483.083C 456.166 483.083 460.699 481.383 463.816 477.983C 470.333 471.466 470.333 460.7 463.816 453.9L 325.55 315.35ZM 34 187.85C 34 103.133 102.85 34 187.85 34C 272.567 34 341.7 102.85 341.7 187.85C 341.7 272.85 272.85 341.7 187.85 341.7C 102.85 341.7 34 272.567 34 187.85Z"/>
</defs>
</svg>
